<svg viewBox="0,0,600,600" clip-rule="evenodd" fill-rule="evenodd" image-rendering="optimizeQuality" shape-rendering="geometricPrecision" text-rendering="geometricPrecision" xmlns="http://www.w3.org/2000/svg">
    <path fill="rgba(255,255,255,1)" d="M300,0, a300,300,0,0,1,0,600, a200,200,0,0,0,0,-400, a100,100,0,0,0,0,200, a200,200,0,0,1,0,-400, Z" />
    <path fill="rgba(0,0,0,1)" d="M300,600, a300,300,0,0,1,0,-600, a200,200,0,0,0,0,400, a100,100,0,0,0,0,-200, a200,200,0,0,1,0,400, Z" />
</svg>